<svg width="196" height="38" viewBox="0 0 196 38" fill="none" xmlns="http://www.w3.org/2000/svg">
<path d="M16.8675 37.2852H4.73494L16.8675 18.9385H29L16.8675 37.2852Z" fill="white"/>
<path d="M12.4284 0H24.8569L12.4284 18.9386H0L12.4284 0Z" fill="white"/>
<path d="M53.1738 23.2553C53.1738 21.0745 51.929 19.4521 49.621 18.7872C51.4104 17.9894 52.4736 16.4468 52.4736 14.6383C52.4736 11.4202 50.2175 9.6383 46.4572 9.6383H40V28.734H46.8203C50.6842 28.734 53.1738 26.7394 53.1738 23.2553ZM46.2757 11.9787C48.5318 11.9787 49.7507 13.0691 49.7507 14.8511C49.7507 16.633 48.5318 17.7234 46.2757 17.7234H42.6192V11.9787H46.2757ZM46.6388 20.0638C49.0764 20.0638 50.4509 21.234 50.4509 23.1755C50.4509 25.1968 49.0764 26.3936 46.6388 26.3936H42.6192V20.0638H46.6388Z" fill="white"/>
<path d="M63.5408 28.734H65.7191V19.6915C65.7191 16.3404 63.7482 14.3723 60.351 14.3723C57.1354 14.3723 54.9311 16.4734 54.8015 19.6383H57.1873C57.2651 17.6702 58.432 16.5 60.351 16.5C62.1663 16.5 63.2296 17.6436 63.2296 19.6649V20.7021C62.1145 20.5691 61.4661 20.5426 60.6622 20.5426C56.5649 20.5426 54.4125 21.9787 54.4125 24.7447C54.4125 27.3245 56.2796 29 59.1322 29C61.155 29 62.685 28.1223 63.5408 26.5532V28.734ZM56.902 24.6649C56.902 23.016 58.1986 22.2181 60.8178 22.2181C61.4921 22.2181 62.2182 22.2447 63.2296 22.3777V23.5213C63.2296 25.6755 61.8551 27.0851 59.6509 27.0851C57.9652 27.0851 56.902 26.1277 56.902 24.6649Z" fill="white"/>
<path d="M70.8029 21.5266C70.8029 18.4149 72.9553 17.0851 75.9116 17.2447V14.4521C73.6555 14.4521 71.5809 15.6755 70.6214 17.617V14.6383H68.1837V28.734H70.8029V21.5266Z" fill="white"/>
<path d="M80.1368 11.367C80.1368 10.3298 79.3589 9.58511 78.2438 9.58511C77.1286 9.58511 76.3247 10.3298 76.3247 11.367C76.3247 12.3777 77.1286 13.1489 78.2438 13.1489C79.3589 13.1489 80.1368 12.3777 80.1368 11.367ZM79.5663 28.734V14.6383H76.9471V28.734H79.5663Z" fill="white"/>
<path d="M93.0568 24.5319C93.0568 22.5106 91.7601 21.2872 89.0372 20.7819L86.7033 20.3298C85.0436 20.0106 84.3434 19.4787 84.3434 18.3351C84.3434 17.1117 85.4585 16.3936 87.1182 16.3936C88.9594 16.3936 90.1782 17.3777 90.3338 19.0798H92.8493C92.6159 16.1809 90.3857 14.3723 87.0923 14.3723C83.9025 14.3723 81.802 16.1011 81.802 18.5745C81.802 20.7021 83.2283 22.0319 85.7697 22.5372L87.9999 22.9628C89.7114 23.3085 90.4116 23.8138 90.4116 24.984C90.4116 26.3138 89.1928 26.9787 87.3516 26.9787C85.251 26.9787 83.8766 25.8883 83.7729 24.133H81.2574C81.5167 27.1649 83.6691 29 87.2997 29C90.9562 29 93.0568 27.2979 93.0568 24.5319Z" fill="white"/>
<path d="M98.9246 28.734V20.6489H106.99V28.734H110.931V9.6383H106.99V17.1649H98.9246V9.6383H94.9829V28.734H98.9246Z" fill="white"/>
<path d="M121.66 28.734H124.59V19.7979C124.59 16.3138 122.464 14.266 118.833 14.266C115.488 14.266 113.18 16.3936 112.972 19.6649H116.214C116.343 18.0691 117.277 17.1383 118.833 17.1383C120.337 17.1383 121.219 18.0691 121.219 19.6649V20.516C120.363 20.4096 119.689 20.3564 118.911 20.3564C114.865 20.3564 112.687 21.8457 112.687 24.6117C112.687 27.2713 114.606 29 117.484 29C119.378 29 120.752 28.3085 121.66 26.9787V28.734ZM116.084 24.5053C116.084 23.2287 117.095 22.5638 119.144 22.5638C119.767 22.5638 120.363 22.617 121.219 22.75V23.7606C121.219 25.4096 120.104 26.4468 118.262 26.4468C116.914 26.4468 116.084 25.7021 116.084 24.5053Z" fill="white"/>
<path d="M130.264 28.734V22.1383L135.554 28.734H140.144L133.739 21.3404L139.47 14.5319H135.32L130.264 20.5426V9.6383H126.659V28.734H130.264Z" fill="white"/>
<path d="M153.24 14.5319H149.609L146.29 24.5319L142.996 14.5319H139.106L144.215 28.734H148.157L153.24 14.5319Z" fill="white"/>
<path d="M159.319 28.9734C162.69 28.9734 165.102 27.1383 165.88 23.9202H162.301C161.886 25.3298 160.823 26.1277 159.241 26.1277C157.4 26.1277 156.311 24.8511 156.078 22.5372H165.906C166.554 17.9096 163.65 14.266 159.267 14.266C155.274 14.266 152.395 17.3511 152.395 21.5798C152.395 26.0213 155.17 28.9734 159.319 28.9734ZM159.189 16.9787C160.901 16.9787 161.99 18.2287 162.094 20.1968H156.129C156.441 18.0957 157.504 16.9787 159.189 16.9787Z" fill="white"/>
<path d="M170.888 21.8457C170.888 18.7074 172.936 17.9628 175.996 18.2021V14.3723C173.766 14.3723 171.614 15.4628 170.602 17.2713V14.5319H167.283V28.734H170.888V21.8457Z" fill="white"/>
<path d="M175.823 21.633C175.823 25.7819 178.234 29 181.969 29C183.758 29 185.262 28.1755 186.351 26.6862V28.734H189.645V9.6383H186.066V16.367C185.029 15.0106 183.628 14.266 181.969 14.266C178.234 14.266 175.823 17.4309 175.823 21.633ZM179.531 21.633C179.531 18.9202 181.009 17.5372 182.773 17.5372C184.536 17.5372 186.04 18.8936 186.04 21.5798C186.04 24.266 184.562 25.7021 182.773 25.7021C181.009 25.7021 179.531 24.2926 179.531 21.633Z" fill="white"/>
<path d="M196 11.234C196 9.93085 195.015 9 193.588 9C192.188 9 191.202 9.93085 191.202 11.234C191.202 12.484 192.188 13.4149 193.588 13.4149C195.015 13.4149 196 12.484 196 11.234ZM195.429 28.734V14.5319H191.825V28.734H195.429Z" fill="white"/>
</svg>
