<?xml version="1.0" standalone="no"?>
<!DOCTYPE svg PUBLIC "-//W3C//DTD SVG 20010904//EN"
 "http://www.w3.org/TR/2001/REC-SVG-20010904/DTD/svg10.dtd">
<svg version="1.0" xmlns="http://www.w3.org/2000/svg"
 width="700.000000pt" height="700.000000pt" viewBox="0 0 700.000000 700.000000"
 preserveAspectRatio="xMidYMid meet">
<metadata>
Created by potrace 1.14, written by Peter Selinger 2001-2017
</metadata>
<g transform="translate(0.000000,700.000000) scale(0.100000,-0.100000)"
fill="#000000" stroke="none">
<path d="M3142 6398 c-112 -166 -1815 -2764 -1819 -2775 -4 -10 186 -13 929
-13 l934 0 930 1416 c511 779 933 1422 937 1430 7 12 -130 14 -927 14 l-935 0
-49 -72z"/>
<path d="M2945 2233 c-500 -757 -911 -1380 -913 -1384 -2 -5 407 -9 910 -9
l913 0 910 1376 c501 757 912 1380 913 1385 2 5 -386 9 -910 9 l-913 0 -910
-1377z"/>
</g>
</svg>
