<svg xmlns="http://www.w3.org/2000/svg" version="1.1" xmlns:xlink="http://www.w3.org/1999/xlink" xmlns:svgjs="http://svgjs.dev/svgjs" width="1000" height="1000"><g clip-path="url(#SvgjsClipPath1033)"><rect width="1000" height="1000" fill="#e0c7ff"></rect><g transform="matrix(2.1604938271604937,0,0,2.1604938271604937,150,150)"><svg xmlns="http://www.w3.org/2000/svg" version="1.1" xmlns:xlink="http://www.w3.org/1999/xlink" xmlns:svgjs="http://svgjs.dev/svgjs" width="324" height="324"><svg width="324" height="324" viewBox="0 0 324 324" fill="none" xmlns="http://www.w3.org/2000/svg">
<g clip-path="url(#clip0_2885_494)">
<rect x="-1.17773" y="-0.177734" width="325.355" height="325.355" fill="#E0C7FF"></rect>
<path fill-rule="evenodd" clip-rule="evenodd" d="M267.624 269.159C241.612 295.17 199.439 295.17 173.427 269.159L160.579 256.311L148.001 268.888C121.989 294.9 79.8161 294.9 53.8044 268.888C27.7927 242.877 27.7927 200.703 53.8044 174.692L66.382 162.114L53.54 149.272C27.5283 123.26 27.5283 81.0869 53.54 55.0752C79.5517 29.0635 121.725 29.0635 147.737 55.0752L160.579 67.9172L173.691 54.8048C199.703 28.7931 241.876 28.7931 267.888 54.8048C293.9 80.8165 293.9 122.99 267.888 149.002L254.776 162.114L267.624 174.962C293.635 200.974 293.635 243.147 267.624 269.159Z" fill="#8424FF"></path>
</g>
<defs>
<clipPath id="clip0_2885_494">
<rect width="324" height="324" fill="white"></rect>
</clipPath>
<clipPath id="SvgjsClipPath1033"><rect width="1000" height="1000" x="0" y="0" rx="300" ry="300"></rect></clipPath></defs>
</svg></svg></g></g></svg>